<svg version="1" xmlns="http://www.w3.org/2000/svg" width="933.333" height="933.333" viewBox="0 0 700.000000 700.000000"><path d="M336 .6c-67.5 3.5-126.9 23-180.9 59.2-18.9 12.7-35 26-52.1 43.2C45 160.9 10.2 234.5 1.9 316.5c-1.5 15.4-1.5 51.6 0 67C10.2 465.5 45 539.1 103 597c57.9 58 131.5 92.8 213.5 101.1 15.4 1.5 51.6 1.5 67 0 82-8.3 155.6-43.1 213.5-101.1 58-57.9 92.8-131.5 101.1-213.5 1.5-15.4 1.5-51.6 0-67-8.3-82-43.1-155.6-101.1-213.5-32.4-32.5-68.2-56.8-109.5-74.5-32-13.6-69.8-23.3-103.5-26.4-12.4-1.2-38.7-2-48-1.5zm-66.6 157.8c5.6 2.3 269.7 182.8 271.4 185.5.9 1.3 1.7 4.1 1.7 6.1s-.8 4.8-1.7 6.1c-1.7 2.7-265.8 183.2-271.3 185.5-4.7 1.9-8.9.8-12.5-3.3l-3-3.4V165.1l3-3.5c2.7-3 4-3.7 8.3-4.5.4 0 2.3.5 4.1 1.3z"/></svg>